#!OML:ASF I:\Actors\actors\Patient Classification 2\Patient 1\Session 1\actor1.ASF
:FULLY-SPECIFIED
:DEGREES
584
root -0.519122 18.7193 5.59254 2.85543 -1.30664 -1.74599
lowerback 3.70764 1.77254 -3.37616
upperback -2.03694 2.20199 0.509401
thorax -4.33447 1.19938 2.25359
lowerneck -14.7025 -3.41832 -3.09368
upperneck 10.2901 -4.8068 6.08651
head 5.74176 -2.00506 1.98195
rclavicle -3.16192e-015 -3.18055e-015
rhumerus 1.89163 3.7075 -49.7038
rradius 97.9501
rwrist -30.3415
rhand -17.1765 -51.933
rfingers 7.12502
rthumb 9.06506 -81.7182
lclavicle -3.16192e-015 -3.18055e-015
lhumerus 12.8621 -9.66863 55.676
lradius 92.727
lwrist 47.7343
lhand -24.6067 -19.7877
lfingers 7.12502
lthumb 1.89137 10.1837
rfemur 0 0 0
rtibia 0
rfoot 0 0
rtoes 0
lfemur -6.09307 -5.11784 -12.9403
ltibia 22.3602
lfoot -23.9387 16.3314
ltoes -54.2012
585
root -0.51717 18.72 5.58794 2.83775 -1.27027 -1.68558
lowerback 3.73399 1.77319 -3.47982
upperback -2.02862 2.19533 0.486914
thorax -4.34375 1.19869 2.28826
lowerneck -14.6993 -3.42238 -3.03732
upperneck 10.3 -4.82513 6.09089
head 5.74407 -2.01126 1.97246
rclavicle 2.53109e-014 1.98785e-015
rhumerus 2.48048 3.41252 -49.5825
rradius 97.4561
rwrist -30.4866
rhand -17.1725 -52.206
rfingers 7.12502
rthumb 9.06891 -81.991
lclavicle 2.53109e-014 1.98785e-015
lhumerus 13.5941 -9.45178 55.679
lradius 92.2692
lwrist 47.8615
lhand -24.6845 -19.679
lfingers 7.12502
lthumb 1.81628 10.2931
rfemur 0 0 0
rtibia 0
rfoot 0 0
rtoes 0
lfemur -6.08956 -5.12685 -13.0129
ltibia 22.339
lfoot -23.9152 16.3227
ltoes -54.2731
586
root -0.514441 18.7207 5.5841 2.82951 -1.26303 -1.68642
lowerback 3.79895 1.77659 -3.52429
upperback -2.06239 2.19471 0.491677
thorax -4.41783 1.20136 2.31559
lowerneck -14.6795 -3.42738 -2.98157
upperneck 10.3581 -4.84033 6.04386
head 5.7572 -2.0194 1.94719
rclavicle 2.59507e-014 1.19271e-015
rhumerus 3.05781 3.15392 -49.5134
rradius 96.9677
rwrist -30.615
rhand -17.2462 -52.1215
rfingers 7.12502
rthumb 8.99781 -81.9096
lclavicle 2.59507e-014 1.19271e-015
lhumerus 14.2745 -9.21097 55.7638
lradius 91.8206
lwrist 48.0589
lhand -24.7437 -19.7336
lfingers 7.12502
lthumb 1.75909 10.2389
rfemur 0 0 0
rtibia 0
rfoot 0 0
rtoes 0
lfemur -6.08894 -5.09339 -13.0182
ltibia 22.3241
lfoot -23.8811 16.3094
ltoes -54.2552
587
root -0.511204 18.7216 5.5809 2.83468 -1.26999 -1.73561
lowerback 3.82933 1.77602 -3.49216
upperback -2.08986 2.195 0.509561
thorax -4.46313 1.20196 2.31468
lowerneck -14.6547 -3.43056 -3.02048
upperneck 10.4142 -4.84177 6.05508
head 5.77204 -2.02043 1.95708
rclavicle -1.04797e-014 2.38542e-015
rhumerus 3.62742 2.90681 -49.464
rradius 96.5173
rwrist -30.5211
rhand -17.3141 -51.9018
rfingers 7.12502
rthumb 8.93226 -81.6927
lclavicle -1.04797e-014 2.38542e-015
lhumerus 14.9035 -8.94301 55.9076
lradius 91.3774
lwrist 48.2152
lhand -24.8223 -19.8042
lfingers 7.12502
lthumb 1.68319 10.1689
rfemur 0 0 0
rtibia 0
rfoot 0 0
rtoes 0
lfemur -6.10491 -4.99172 -12.9631
ltibia 22.3184
lfoot -23.8187 16.2318
ltoes -54.2073
588
root -0.508038 18.722 5.57892 2.84178 -1.26342 -1.77235
lowerback 3.81623 1.77187 -3.45008
upperback -2.10013 2.19209 0.506653
thorax -4.4643 1.19939 2.28854
lowerneck -14.6362 -3.4371 -3.03203
upperneck 10.4621 -4.85032 6.04862
head 5.78454 -2.02516 1.9562
rclavicle 7.03822e-015 -4.37326e-015
rhumerus 4.14105 2.65314 -49.4792
rradius 96.1858
rwrist -30.5141
rhand -17.4117 -51.8663
rfingers 7.12502
rthumb 8.83808 -81.6613
lclavicle 7.03822e-015 -4.37326e-015
lhumerus 15.5239 -8.72979 56.0387
lradius 90.9808
lwrist 48.2511
lhand -24.9818 -19.6229
lfingers 7.12502
lthumb 1.52918 10.3514
rfemur 0 0 0
rtibia 0
rfoot 0 0
rtoes 0
lfemur -6.1257 -4.91151 -12.9208
ltibia 22.3258
lfoot -23.8037 16.1187
ltoes -54.1139
589
root -0.504637 18.7229 5.57787 2.85087 -1.22648 -1.78233
lowerback 3.80931 1.75913 -3.43174
upperback -2.11958 2.17547 0.491134
thorax -4.47811 1.19082 2.2634
lowerneck -14.6603 -3.4533 -2.9649
upperneck 10.5662 -4.88203 5.98318
head 5.81948 -2.04072 1.921
rclavicle 1.55332e-014 -2.38542e-015
rhumerus 4.61211 2.43845 -49.5332
rradius 95.9296
rwrist -30.6706
rhand -17.4583 -51.7994
rfingers 7.12502
rthumb 8.79315 -81.5962
lclavicle 1.55332e-014 -2.38542e-015
lhumerus 16.0916 -8.5744 56.1906
lradius 90.6616
lwrist 48.2092
lhand -25.128 -19.4238
lfingers 7.12502
lthumb 1.3879 10.5514
rfemur 0 0 0
rtibia 0
rfoot 0 0
rtoes 0
lfemur -6.14445 -4.88167 -12.9112
ltibia 22.3299
lfoot -23.8155 16.0321
ltoes -54.08
590
root -0.500656 18.724 5.57694 2.87587 -1.1944 -1.77684
lowerback 3.7993 1.73362 -3.42855
upperback -2.15226 2.14116 0.482111
thorax -4.50369 1.1744 2.25479
lowerneck -14.6274 -3.47635 -2.90028
upperneck 10.6283 -4.91943 5.90529
head 5.83155 -2.06181 1.88247
rclavicle 3.33477e-014 3.57812e-015
rhumerus 5.07632 2.25306 -49.616
rradius 95.6999
rwrist -30.6743
rhand -17.4894 -51.2525
rfingers 7.12502
rthumb 8.76305 -81.0506
lclavicle 3.33477e-014 3.57812e-015
lhumerus 16.4935 -8.45054 56.3135
lradius 90.4568
lwrist 48.2519
lhand -25.2507 -19.3841
lfingers 7.12502
lthumb 1.26946 10.5919
rfemur 0 0 0
rtibia 0
rfoot 0 0
rtoes 0
lfemur -6.17372 -4.87796 -12.9238
ltibia 22.3211
lfoot -23.79 16.0236
ltoes -54.1371
591
root -0.495028 18.7243 5.57596 2.9014 -1.18832 -1.73944
lowerback 3.80399 1.71 -3.449
upperback -2.19345 2.10765 0.48012
thorax -4.54783 1.15961 2.26607
lowerneck -14.5668 -3.50217 -2.95955
upperneck 10.6616 -4.94172 5.88171
head 5.83364 -2.07754 1.88308
rclavicle 6.95746e-016 2.78299e-015
rhumerus 5.48591 2.15327 -49.6781
rradius 95.5189
rwrist -30.7421
rhand -18.014 -50.4233
rfingers 7.12502
rthumb 8.25684 -80.242
lclavicle 6.95746e-016 2.78299e-015
lhumerus 16.7388 -8.38537 56.3867
lradius 90.3263
lwrist 48.416
lhand -25.3141 -19.4137
lfingers 7.12502
lthumb 1.20822 10.5627
rfemur 0 0 0
rtibia 0
rfoot 0 0
rtoes 0
lfemur -6.19798 -4.94423 -12.9885
ltibia 22.3127
lfoot -23.7914 16.095
ltoes -54.1199
592
root -0.489589 18.724 5.57538 2.90232 -1.20852 -1.68677
lowerback 3.91987 1.70676 -3.47858
upperback -2.28247 2.09574 0.471193
thorax -4.70668 1.15811 2.26951
lowerneck -14.558 -3.5162 -3.18139
upperneck 10.8127 -4.94867 6.05622
head 5.89049 -2.07467 1.97344
rclavicle -2.76078e-014 -3.97569e-015
rhumerus 5.70532 2.16169 -49.7057
rradius 95.4375
rwrist -30.8033
rhand -18.2967 -50.256
rfingers 7.12502
rthumb 7.98399 -80.0852
lclavicle -2.76078e-014 -3.97569e-015
lhumerus 16.8429 -8.42572 56.5054
lradius 90.2386
lwrist 48.5235
lhand -25.2841 -19.4534
lfingers 7.12502
lthumb 1.23723 10.5227
rfemur 0 0 0
rtibia 0
rfoot 0 0
rtoes 0
lfemur -6.18822 -5.02726 -13.0775
ltibia 22.3088
lfoot -23.8493 16.1809
ltoes -54.0834
593
root -0.486299 18.7233 5.57512 2.89758 -1.24214 -1.68588
lowerback 4.02793 1.71589 -3.46313
upperback -2.35892 2.10374 0.468909
thorax -4.84788 1.16475 2.25338
lowerneck -14.5277 -3.52697 -3.36484
upperneck 10.9237 -4.96238 6.26282
head 5.9315 -2.07205 2.06766
rclavicle -4.86867e-016 -5.56597e-015
rhumerus 5.78049 2.19886 -49.762
rradius 95.4748
rwrist -30.7105
rhand -18.1785 -50.6253
rfingers 7.12502
rthumb 8.09805 -80.4501
lclavicle -4.86867e-016 -5.56597e-015
lhumerus 16.8528 -8.52263 56.6752
lradius 90.2552
lwrist 48.4513
lhand -25.2331 -19.458
lfingers 7.12502
lthumb 1.28642 10.5178
rfemur 0 0 0
rtibia 0
rfoot 0 0
rtoes 0
lfemur -6.16788 -5.03495 -13.0961
ltibia 22.3025
lfoot -23.903 16.2014
ltoes -54.0865
594
root -0.483652 18.7229 5.57482 2.89807 -1.26509 -1.71467
lowerback 3.97946 1.71521 -3.43672
upperback -2.33204 2.10765 0.49293
thorax -4.79235 1.16507 2.26502
lowerneck -14.5581 -3.53371 -3.40065
upperneck 10.9255 -4.96268 6.25706
head 5.93784 -2.07355 2.07123
rclavicle 4.02399e-014 3.57812e-015
rhumerus 5.87173 2.22505 -49.8474
rradius 95.5822
rwrist -30.7131
rhand -18.3663 -50.7647
rfingers 7.12502
rthumb 7.9168 -80.5965
lclavicle 4.02399e-014 3.57812e-015
lhumerus 16.8432 -8.59929 56.8279
lradius 90.3683
lwrist 48.3144
lhand -25.2213 -19.4706
lfingers 7.12502
lthumb 1.29785 10.5052
rfemur 0 0 0
rtibia 0
rfoot 0 0
rtoes 0
lfemur -6.1642 -5.01065 -13.0731
ltibia 22.3023
lfoot -23.9412 16.1653
ltoes -54.0835
595
root -0.480736 18.7229 5.57424 2.89249 -1.27877 -1.7076
lowerback 3.92645 1.70293 -3.44108
upperback -2.29896 2.09374 0.501723
thorax -4.72721 1.15704 2.27986
lowerneck -14.6538 -3.50401 -3.3165
upperneck 10.9694 -4.91888 6.11192
head 5.95938 -2.0575 2.01452
rclavicle -4.17487e-015 2.78299e-015
rhumerus 5.86261 2.29916 -49.9967
rradius 95.7634
rwrist -30.7665
rhand -18.6491 -50.6245
rfingers 7.12502
rthumb 7.64381 -80.4664
lclavicle -4.17487e-015 2.78299e-015
lhumerus 16.7142 -8.73477 56.8798
lradius 90.5357
lwrist 48.2773
lhand -25.1773 -19.5548
lfingers 7.12502
lthumb 1.34029 10.4208
rfemur 0 0 0
rtibia 0
rfoot 0 0
rtoes 0
lfemur -6.16654 -4.97898 -13.0907
ltibia 22.3111
lfoot -23.9409 16.1316
ltoes -54.0599
596
root -0.477912 18.7232 5.57409 2.89103 -1.29121 -1.69461
lowerback 3.94287 1.69252 -3.44242
upperback -2.32675 2.07841 0.493446
thorax -4.76427 1.15028 2.27239
lowerneck -14.6652 -3.46069 -3.21808
upperneck 11.0323 -4.86861 6.00809
head 5.97346 -2.03585 1.97028
rclavicle 3.51018e-014 -1.66979e-014
rhumerus 5.66887 2.46107 -50.1956
rradius 95.9808
rwrist -30.7261
rhand -18.8955 -50.3253
rfingers 7.12502
rthumb 7.40604 -80.1756
lclavicle 3.51018e-014 -1.66979e-014
lhumerus 16.4229 -8.95589 56.9223
lradius 90.7509
lwrist 48.2873
lhand -25.2013 -19.6209
lfingers 7.12502
lthumb 1.31719 10.3548
rfemur 0 0 0
rtibia 0
rfoot 0 0
rtoes 0
lfemur -6.17102 -4.96461 -13.1169
ltibia 22.3188
lfoot -23.9129 16.1273
ltoes -54.0515
597
root -0.475297 18.723 5.57561 2.88482 -1.30545 -1.68041
lowerback 3.96176 1.68873 -3.45559
upperback -2.36103 2.0714 0.49282
thorax -4.81089 1.14841 2.2786
lowerneck -14.6398 -3.45251 -3.19163
upperneck 11.0905 -4.86671 6.00775
head 5.98692 -2.03341 1.96628
rclavicle 1.12502e-014 1.59028e-015
rhumerus 5.37647 2.66432 -50.3814
rradius 96.1907
rwrist -30.6808
rhand -18.6998 -50.4194
rfingers 7.12502
rthumb 7.59493 -80.263
lclavicle 1.12502e-014 1.59028e-015
lhumerus 16.063 -9.16958 57.0891
lradius 91.0005
lwrist 48.2273
lhand -25.2617 -19.5391
lfingers 7.12502
lthumb 1.25884 10.4369
rfemur 0 0 0
rtibia 0
rfoot 0 0
rtoes 0
lfemur -6.15575 -5.00884 -13.1492
ltibia 22.3235
lfoot -23.9311 16.1667
ltoes -54.0634
598
root -0.472449 18.7222 5.57832 2.86327 -1.31979 -1.64214
lowerback 3.95421 1.68868 -3.47301
upperback -2.35821 2.07014 0.482431
thorax -4.80385 1.14801 2.27796
lowerneck -14.7018 -3.45226 -3.17562
upperneck 11.1719 -4.87521 6.02346
head 6.0236 -2.03321 1.96698
rclavicle -3.32112e-014 4.37326e-015
rhumerus 5.03711 2.88119 -50.5544
rradius 96.403
rwrist -30.7236
rhand -18.0438 -51.05
rfingers 7.12502
rthumb 8.22806 -80.8698
lclavicle -3.32112e-014 4.37326e-015
lhumerus 15.7367 -9.35854 57.2432
lradius 91.1935
lwrist 48.1875
lhand -25.2204 -19.3944
lfingers 7.12502
lthumb 1.29869 10.5814
rfemur 0 0 0
rtibia 0
rfoot 0 0
rtoes 0
lfemur -6.12187 -5.06246 -13.2115
ltibia 22.3329
lfoot -23.9683 16.2223
ltoes -54.0508
